<svg xmlns="http://www.w3.org/2000/svg" version="1.1" xmlns:xlink="http://www.w3.org/1999/xlink" xmlns:svgjs="http://svgjs.dev/svgjs" width="100%" height="100%" viewBox="0 0 1000 600"><rect width="1000" height="600" x="0" y="0" fill="#f3f6fa"/><g><circle r="166.66666666666666" cx="345.78327433268225" cy="368.0055013540364" fill="#c5fad5" transform="matrix(0.697869198578238,0,0,0.6978691985782378,0,43.18025967191021)"/><path d="M421.2898373578438 442.6002366428446L273.5187056500829 443.0054855838649Q274.76339882607385 441.78973876080397 275.57389670811443 435.1610239398291Q276.384394590155 428.5612554717841 276.8764825899654 419.1826371224571Q277.3975169427058 409.83296512606 277.5133023544259 398.83335101265175Q277.60014141321597 387.8626832521736 277.60014141321597 377.87619149131604Q277.60014141321597 367.8896997304586 277.5133023544259 360.2768089098629Q277.3975169427058 352.6349717363371 277.3975169427058 349.5956046786848L277.3975169427058 349.5956046786848Q277.3975169427058 347.7430380911635 277.3975169427058 343.2852997399401Q277.3975169427058 338.7986150357867 277.31067788391573 333.29880797908265Q277.19489247219565 327.79900092237847 276.9922680016855 321.60448139535384Q276.78964353117533 315.38101551539916 276.268609178435 310.1127792821352Q275.7765211786246 304.8155966959412 274.966023296584 300.84994634452823Q274.1555254145434 296.8842959931153 272.9108322385524 295.4369783466142L272.9108322385524 295.4369783466142Q272.302958827022 294.8291049350837 271.60824635670144 294.2212315235533Q270.88458753345094 293.61335811202287 270.27671412192046 293.0054847004924L270.27671412192046 293.0054847004924L418.04784582968136 293.4107336415127L415.7900303011397 315.9888889269296Q414.7769079485889 315.5836399859093 410.81125759717594 315.38101551539916Q406.84560724576295 315.17839104488905 401.1431757185487 314.9757665743789Q395.4407441913344 314.77314210386874 388.9278147820795 314.6863030450786Q382.41488537282464 314.5705176333586 376.6256147868203 314.5705176333586Q370.8073978478859 314.5705176333586 366.3496594966626 314.5705176333586Q361.8629747925092 314.5705176333586 360.241979028428 314.5705176333586L360.241979028428 314.5705176333586Q334.19026139140846 314.5705176333586 307.9359192838787 315.17839104488905L307.9359192838787 315.17839104488905Q306.922796931328 325.3675072762567 306.7201724608178 335.44083809590427Q306.51754799030766 345.51416891555175 306.51754799030766 355.90590961742953L306.51754799030766 355.90590961742953L400.1300533659979 354.86384091194884L399.92742889548776 376.6604446682552Q399.11693101344713 376.45782019774504 395.96177854407483 376.13941031551474Q392.8066260747024 375.84994678621456 388.5225658410592 375.7341613744944Q384.238505607416 375.6473223157044 379.2597329034523 375.53153690398426Q374.2809601994885 375.44469784519424 369.91006090705525 375.44469784519424Q365.539161614622 375.44469784519424 362.06559926301935 375.44469784519424Q358.62098326434676 375.44469784519424 357.37629008835586 375.44469784519424L357.37629008835586 375.44469784519424Q331.93244586286676 375.44469784519424 306.3149235197975 376.0525712567247L306.3149235197975 376.0525712567247Q306.3149235197975 385.19961878261154 306.1991381080774 394.25982724970834Q306.08335269635734 403.32003571680514 306.08335269635734 412.46708324269207L306.08335269635734 412.46708324269207L306.08335269635734 420.6299547689581Q320.5565291613682 421.2378281804886 334.88497386172895 421.2378281804886Q349.2423649150197 421.2378281804886 363.68659502710057 421.2378281804886L363.68659502710057 421.2378281804886Q365.1339126736017 421.2378281804886 369.591651024825 421.2378281804886Q374.07833572897835 421.2378281804886 379.9833917267028 421.2378281804886Q385.88844772442724 421.2378281804886 392.285591721962 421.12204276876855Q398.71168207242687 421.0352037099784 404.41411359964115 420.9194182982584Q410.0875987739254 420.8325792394684 414.08219547826843 420.6299547689581Q418.04784582968136 420.42733029844806 419.06096818223216 419.9931350044976L419.06096818223216 419.9931350044976L421.2898373578438 442.6002366428446Z " fill="#aaaa99" transform="matrix(0.697869198578238,0,0,0.6978691985782378,0,43.18025967191021)"/><path d="M708.5426465945885 405.9161444194456L598.2040323058762 406.21873807273494Q599.133427098122 405.31095711286696 599.7386144047007 400.3613894983488Q600.3438017112793 395.43343571620846 600.711236861702 388.43055402579853Q601.1002858445027 381.44928616776633 601.1867411740138 373.23602986419917Q601.2515826711472 365.04438739300974 601.2515826711472 357.5876152226658Q601.2515826711472 350.1308430523219 601.1867411740138 344.4464051369582Q601.1002858445027 338.7403533892168 601.1002858445027 336.47090098954686L601.1002858445027 336.47090098954686Q601.1002858445027 335.08761571736716 601.1002858445027 331.7590855311846Q601.1002858445027 328.4089415126243 601.0354443473691 324.3023133608407Q600.9489890178579 320.19568520905716 600.7976921912133 315.5703250802061Q600.6463953645687 310.9233511189773 600.257346381768 306.9896336262161Q599.8899112313453 303.0343023010772 599.2847239247667 300.0732072653174Q598.679536618188 297.1121122295576 597.7501418259423 296.0314206106673L597.7501418259423 296.0314206106673Q597.2962513460083 295.5775301307333 596.7775193689408 295.1236396507993Q596.2371735594957 294.6697491708653 595.7832830795617 294.2158586909313L595.7832830795617 294.2158586909313L706.1218973682741 294.5184523442207L704.436018442805 311.37724159891127Q703.6795343095816 311.0746479456219 700.7184392738219 310.9233511189773Q697.7573442380622 310.77205429233265 693.4994192596339 310.620757465688Q689.2414942812056 310.4694606390433 684.3783819961986 310.40461914190985Q679.5152697111918 310.31816381239867 675.19250323563 310.31816381239867Q670.8481229276906 310.31816381239867 667.5195927415081 310.31816381239867Q664.1694487229478 310.31816381239867 662.9590741097904 310.31816381239867L662.9590741097904 310.31816381239867Q643.5066249697628 310.31816381239867 623.9028790030906 310.77205429233265L623.9028790030906 310.77205429233265Q623.1463948698672 318.3801232893212 622.9950980432226 325.9017369567986Q622.843801216578 333.42335062427594 622.843801216578 341.1827164479091L622.843801216578 341.1827164479091L692.7429351264105 340.404618482308L692.5916382997659 356.67983426279784Q691.9864509931873 356.5285374361532 689.6305432640062 356.2907852799973Q687.274635534825 356.0746469562192 684.0757883429094 355.98819162670793Q680.8769411509937 355.9233501295746 677.1593619820106 355.8368948000633Q673.4417828130277 355.77205330292986 670.1780941239786 355.77205330292986Q666.9144054349294 355.77205330292986 664.3207455495924 355.77205330292986Q661.7486994966332 355.77205330292986 660.8193047043874 355.77205330292986L660.8193047043874 355.77205330292986Q641.8207460442939 355.77205330292986 622.6925043899332 356.22594378286385L622.6925043899332 356.22594378286385Q622.6925043899332 363.0559148142513 622.606049060422 369.82104434850544Q622.5195937309109 376.58617388275945 622.5195937309109 383.4161449141469L622.5195937309109 383.4161449141469L622.5195937309109 389.511245644689Q633.3265099198151 389.965136124623 644.0253569468302 389.965136124623Q654.7458178062233 389.965136124623 665.5311201627496 389.965136124623L665.5311201627496 389.965136124623Q666.6118117816402 389.965136124623 669.9403419678226 389.965136124623Q673.2904859863829 389.965136124623 677.6997077914559 389.965136124623Q682.1089295965288 389.965136124623 686.8855865520245 389.8786807951117Q691.6838573398979 389.81383929797823 695.9417823183262 389.72738396846705Q700.1780934643767 389.6625424713336 703.1608023325142 389.511245644689Q706.1218973682741 389.35994881804424 706.8783815014973 389.03574133237714L706.8783815014973 389.03574133237714L708.5426465945885 405.9161444194456ZM715.8481219382878 367.0112461393903L715.3942314583538 350.1308430523219Q716.4533092448664 350.6063473646336 719.2631074539817 350.8224856884118Q722.0729056630967 351.0602378445676 725.2717528550123 351.12507934170105Q728.4489862145502 351.21153467121235 731.2587844236654 351.21153467121235Q734.0685826327804 351.21153467121235 735.4518679049602 351.21153467121235L735.4518679049602 351.21153467121235Q737.1161329980514 351.21153467121235 741.2876026469685 351.12507934170105Q745.4806861282633 351.0602378445676 750.7976888932042 350.9737825150564Q756.114691658145 350.908941017923 761.9720402325312 350.67118886176706Q767.8077749745395 350.455050537989 772.9734809128357 350.2172983818331Q778.139186851132 349.97954622567727 781.8783798524928 349.61211107525446Q785.5959590214758 349.2230620924539 786.6550368079885 348.7691716125199L786.6550368079885 348.7691716125199L786.2011463280545 367.4651366193243Q785.5959590214758 367.0112461393903 782.8510023094942 366.70865248610096Q780.1276594298903 366.4060588328117 776.4100802609072 366.25476200616697Q772.6708872595464 366.10346517952235 768.2616654544735 366.01700985001116Q763.8740574817783 365.9521683528777 759.9835676537728 365.8657130233664Q756.114691658145 365.800871526233 753.0671412928741 365.800871526233Q750.0412047599808 365.800871526233 748.9605131410905 365.800871526233L748.9605131410905 365.800871526233Q746.9936543947099 365.800871526233 742.130542109703 365.800871526233Q737.267429824696 365.800871526233 731.9504270597552 365.8657130233664Q726.6334242948143 365.9521683528777 721.9864503335855 366.25476200616697Q717.3610902047344 366.55735565945633 715.8481219382878 367.0112461393903L715.8481219382878 367.0112461393903ZM894.5512880380085 345.267730767315Q895.3293860036096 341.93920058113247 895.9345733101882 338.67551189208336Q896.5397606167668 335.3902093706565 896.5397606167668 331.91038235782935L896.5397606167668 331.91038235782935Q896.5397606167668 325.05879749406404 894.0973975580745 320.5847341918577Q891.6766483317599 316.0890570572735 887.4835648504651 313.43055567480303Q883.312095201548 310.77205429233265 877.9086371070958 309.79943183533123Q872.5267928450215 308.8051955459521 866.604602773502 308.8051955459521L866.604602773502 308.8051955459521Q862.9518651016524 308.8051955459521 858.2400496432901 309.34554135539724Q853.528234184928 309.8642733324647 848.5786665704098 311.0098064484886Q843.6507127882695 312.15533956451236 838.7876005032625 313.9709014842483Q833.9244882182556 315.78646340398416 830.2069090492726 318.5314201159659Q826.4677160479117 321.27637682794756 824.1118083187306 324.9939559969306Q821.7559005895495 328.7115351659137 821.7559005895495 333.42335062427594L821.7559005895495 333.42335062427594Q821.7559005895495 337.5299787760596 824.738609457687 340.4910738118193Q827.6997044934468 343.45216884757906 832.3250646222978 345.5919382529821Q836.9720385835266 347.7100938260073 842.7429318284015 349.0717652658093Q848.5138250732763 350.455050537989 854.1334214915065 351.4276729949904Q859.7530179097367 352.4219092843696 864.6161301947437 352.96225509381475Q869.4792424797506 353.4809870708822 872.3754960183769 353.93487755081617L872.3754960183769 353.93487755081617Q876.0282336902266 354.5400648573948 881.2587811256561 355.3830043201293Q886.5109423934637 356.22594378286385 892.1305388116938 357.5876152226658Q897.750135229924 358.9492866624678 903.3048901510209 360.9377592412261Q908.8380312397398 362.9046179876067 913.2472530448127 365.7144161967218Q917.6564748498857 368.5242144058369 920.4014315618673 372.26340740719775Q923.1247744414712 375.98098657618084 923.1247744414712 380.8440988611877L923.1247744414712 380.8440988611877Q923.1247744414712 386.00980479948396 920.3149762323561 389.965136124623Q917.505178023241 393.898853617384 912.8798178943899 396.8815624855216Q908.2328439331612 399.84265752128135 902.5484060177976 401.7446747705286Q896.842354270056 403.6250781873979 890.98500569567 404.85706663293297Q885.127657121284 406.0674412460902 879.810654356343 406.5213317260242Q874.4936515914021 406.9752222059582 870.8625277519303 406.9752222059582L870.8625277519303 406.9752222059582Q854.7386087980852 406.9752222059582 838.9388973299073 404.3167208234878Q823.1391858617292 401.6582194410173 808.0959585267744 395.7360293694978L808.0959585267744 395.7360293694978Q806.5613764279501 395.1308420629191 804.5945176815695 394.2879026001847Q802.627658935189 393.44496313745015 800.4878895297859 392.53718217758217Q798.3697339567607 391.6294012177142 796.3812613780023 391.0242139111356Q794.4144026316217 390.41902660455685 792.9014343651751 390.2677297779122L792.9014343651751 390.2677297779122Q793.809215325043 389.35994881804424 795.7112325742902 387.6740698925752Q797.5916359911595 386.00980479948396 799.4936532404067 384.02133222072564Q801.3956704896539 382.05447347434506 802.9950940856116 380.30375305174255Q804.5945176815695 378.55303262914003 804.8971113348588 377.64525166927206L804.8971113348588 377.64525166927206Q818.2760735767223 385.85850797283933 834.1406265420336 389.81383929797823Q850.026793339723 393.7475567907394 865.6752079812562 393.7475567907394L865.6752079812562 393.7475567907394Q868.2688678665933 393.7475567907394 873.82362278769 393.3801216403167Q879.356763876409 392.99107265751616 884.9115187975058 391.7806980443588Q890.4662737186026 390.5703234312016 894.6377433675196 388.3657125286651Q898.8092130164367 386.1611016261286 898.8092130164367 382.50836395427905L898.8092130164367 382.50836395427905Q898.8092130164367 377.64525166927206 894.4864465408749 374.7706119630236Q890.1636800653133 371.8743584243972 883.0095015482586 369.97234117515006Q875.8769368635818 368.0703239259029 866.7558996001467 366.924790809879Q857.6348623367115 365.800871526233 848.1247760904758 364.4175862540533Q838.6363036766179 363.0559148142513 829.5152664131826 361.1538975650042Q820.3942291497475 359.25188031575703 813.2616644650707 355.98819162670793Q806.1074859480161 352.72450293765894 801.7847194724544 347.7100938260073Q797.4403391645149 342.6956847143557 797.4403391645149 335.08761571736716L797.4403391645149 335.08761571736716Q797.4403391645149 327.04727007282236 800.7256416859418 320.8008725156358Q803.9893303749908 314.57608879082693 809.5224714637098 309.8642733324647Q815.0772263848066 305.1524578741024 822.1449495723499 301.9752245145646Q829.2126727598934 298.77637732264895 836.8855832540154 296.7879047438905Q844.5584937481374 294.82104599750994 852.166562745126 293.91326503764196Q859.7530179097367 293.00548407777404 866.1507122935681 293.00548407777404L866.1507122935681 293.00548407777404Q876.7847178234498 293.00548407777404 886.359645566819 294.6697491708653Q895.9345733101882 296.33401426395653 903.0022964977314 300.74323606902954Q910.0700196852749 305.1524578741024 914.2414893341919 313.06312052438034Q918.412958983109 320.9521693422804 918.412958983109 333.42335062427594L918.412958983109 333.42335062427594Q918.412958983109 336.47090098954686 918.1968206593309 339.3455406957954Q917.959068503175 342.24179423442183 917.6564748498857 345.267730767315L917.6564748498857 345.267730767315L894.5512880380085 345.267730767315ZM993.0455221836817 333.2720537976313L993.0455221836817 333.2720537976313Q999.7241963884245 333.2720537976313 1005.6463864599441 335.17407104687845Q1011.5685765314637 337.0760882961256 1016.0642536660476 340.88012279461987Q1020.5383169682541 344.6625434607363 1023.1319768535911 350.1308430523219Q1025.7040229065503 355.62075647628524 1025.7040229065503 362.75332116096206L1025.7040229065503 362.75332116096206Q1025.7040229065503 364.4175862540533 1025.6391814094168 367.9190270992583Q1025.5527260799058 371.4204679444632 1025.5527260799058 375.7432344200249Q1025.5527260799058 380.0876147279645 1025.5527260799058 384.79943018632673Q1025.5527260799058 389.511245644689 1025.7040229065503 393.59625996409477Q1025.8553197331948 397.7028881158784 1026.1579133864843 400.75043848114933Q1026.4821208721514 403.7763750140425 1027.08730817873 404.70576980628834L1027.08730817873 404.70576980628834L1001.0858678282265 404.70576980628834Q1003.3769340602742 398.1567785958124 1004.738605500076 390.5703234312016Q1006.100276939878 382.9622544342129 1006.100276939878 375.98098657618084L1006.100276939878 375.98098657618084Q1006.100276939878 370.3613901579506 1004.9763576562319 365.3469810462991Q1003.8308245402081 360.3325719346475 1001.1723231577377 356.59337893328666Q998.5138217752673 352.87579976430357 994.1694414673278 350.75764419127836Q989.846674991766 348.6178747858753 983.4705944403125 348.6178747858753L983.4705944403125 348.6178747858753Q976.7703064031919 348.6178747858753 970.6319780078943 351.9680188044356Q964.4720357802189 355.3181628229959 960.2141108017905 360.3325719346475L960.2141108017905 360.3325719346475Q960.0628139751459 365.19568421965437 960.0628139751459 370.1236380017947Q960.0628139751459 375.07320561631286 960.0628139751459 380.0876147279645L960.0628139751459 380.0876147279645Q960.0628139751459 380.8440988611877 960.0628139751459 383.11355126085766Q960.0628139751459 385.40461749290534 960.0628139751459 388.43055402579853Q960.0628139751459 391.47810439106956 960.2141108017905 394.82824840962985Q960.3654076284353 398.1567785958124 960.51670445508 401.0530321344387Q960.6680012817246 403.949285673065 960.9705949350139 405.980985916579Q961.2731885883032 408.0342999924708 961.7270790682372 408.48819047240477L961.7270790682372 408.48819047240477L934.8394715902435 408.48819047240477Q935.444658896822 407.7317063391815 935.9633908738895 403.3224845341085Q936.5037366833348 398.91326272903564 937.0440824927799 392.774934333738Q937.5628144698472 386.6149921060626 938.0167049497812 379.39597209187457Q938.4705954297152 372.17695207768656 938.7948029153823 365.7144161967218Q939.0973965686718 359.25188031575703 939.3135348924499 354.38876803075016Q939.5512870486057 349.5256557457433 939.7025838752504 347.86139065265195L939.7025838752504 347.86139065265195Q940.1564743551843 336.017010509613 940.1564743551843 323.84842288090675L940.1564743551843 323.84842288090675Q940.1564743551843 323.09193874768346 940.1564743551843 320.887327845147Q940.1564743551843 318.68271694261057 940.0700190256731 315.72162190685077Q940.0051775285397 312.760526871091 939.853880701895 309.4968381820419Q939.7025838752504 306.211535660615 939.399990221961 303.4017374514999Q939.0973965686718 300.5919392423848 938.5570507592265 298.6250804960042Q938.0167049497812 296.6366079172459 937.260220816558 296.33401426395653L937.260220816558 296.33401426395653L966.2875976999547 296.6366079172459Q965.5311135667315 296.6366079172459 965.0772230867975 297.868596362781Q964.6233326068635 299.0789709759382 964.4720357802189 299.5328614558722L964.4720357802189 299.5328614558722Q963.2616611670616 303.4881927810112 962.8726121842611 307.81095925657286Q962.4835632014605 312.15533956451236 962.1809695481712 316.24035388391815L962.1809695481712 316.24035388391815Q961.5757822415925 322.78934509439415 961.2731885883032 329.25188097535886Q960.9705949350139 335.69280302394577 960.6680012817246 342.24179423442183L960.6680012817246 342.24179423442183Q967.4979723131121 337.37868194941484 976.1651190966132 335.3253678735231Q984.8322658801145 333.2720537976313 993.0455221836817 333.2720537976313ZM1090.1564710571752 332.96946014434195L1090.1564710571752 332.96946014434195Q1098.4994103550093 332.96946014434195 1107.771744445089 335.3253678735231Q1117.0440785351689 337.6812756027042 1124.6521475321576 342.4579325581999Q1132.2386026967683 347.25620334607333 1137.2530118084198 354.5400648573948Q1142.2674209200716 361.8455402010941 1142.2674209200716 371.7230615977526L1142.2674209200716 371.7230615977526Q1142.2674209200716 378.25043897585067 1139.846671693757 383.5026002436582Q1137.4043086350646 388.7331476790878 1133.384135812792 392.774934333738Q1129.36396299052 396.79510715601043 1124.046960225579 399.75620219177017Q1118.7299574606382 402.7172972275299 1112.8726088862518 404.61931447677705Q1107.0152603118659 406.5213317260242 1100.9417734137019 407.42911268589216Q1094.8682865155374 408.33689364576014 1089.5512837505967 408.33689364576014L1089.5512837505967 408.33689364576014Q1080.8841369670954 408.33689364576014 1071.7630997036604 406.37003489937956Q1062.642062440225 404.403176152999 1055.1204487727477 399.9939543479261Q1047.5988351052702 395.5847325428531 1042.800564317397 388.5170093553097Q1038.0239073619011 381.44928616776633 1038.0239073619011 371.11787429117396L1038.0239073619011 371.11787429117396Q1038.0239073619011 360.9377592412261 1042.9518611440415 353.7187392270381Q1047.9014287585596 346.4997192128501 1055.5094977555482 341.8527452516213Q1063.095952920159 337.2273851227702 1072.2818316807275 335.08761571736716Q1081.489324273674 332.96946014434195 1090.1564710571752 332.96946014434195ZM1060.826500520489 370.9665774645292L1060.826500520489 370.9665774645292Q1060.826500520489 376.8887675360488 1063.4850019029595 380.99539568783246Q1066.1435032854301 385.102023839616 1070.3149729343472 387.6740698925752Q1074.486442583264 390.2677297779122 1079.6521485215603 391.39164906155827Q1084.8394682922344 392.53718217758217 1089.8538774038861 392.53718217758217L1089.8538774038861 392.53718217758217Q1094.565692862248 392.53718217758217 1099.7313988005444 391.3268075644248Q1104.8971047388404 390.1164329512676 1109.3063265439137 387.52277306593055Q1113.6939345166088 384.95072701297136 1116.590188055235 380.90894035832116Q1119.4864415938614 376.8887675360488 1119.4864415938614 371.2691711178186L1119.4864415938614 371.2691711178186Q1119.4864415938614 365.64957469958836 1116.7414848818796 361.45649121829354Q1114.018142002276 357.28502156937645 1109.7602170238474 354.47522336026134Q1105.5022920454194 351.66542515114634 1100.250130777612 350.2821398789665Q1095.0195833421822 348.92046843916455 1090.1564710571752 348.92046843916455L1090.1564710571752 348.92046843916455Q1085.142061945524 348.92046843916455 1079.9763560072274 350.2172983818331Q1074.7890362365533 351.5141283245016 1070.552725090503 354.1726297069721Q1066.2948001120747 356.83113108944247 1063.5498434000929 361.00260073835955Q1060.826500520489 365.19568421965437 1060.826500520489 370.9665774645292ZM1208.9893214703661 329.7706129524263L1208.9893214703661 329.7706129524263Q1217.2025777739336 329.7706129524263 1225.178081921345 331.9752238549628Q1233.1535860687563 334.1798347574992 1239.5296666202098 338.67551189208336Q1245.927361004041 343.1495751942897 1249.8610784968023 349.97954622567727Q1253.8164098219413 356.83113108944247 1253.8164098219413 365.9521683528777L1253.8164098219413 365.9521683528777Q1253.8164098219413 375.07320561631286 1248.8020007102896 382.2057703009897Q1243.7875915986378 389.35994881804424 1236.114681104516 394.2879026001847Q1228.441770610394 399.23747021470274 1219.40718867647 401.80951626766193Q1210.3509929101683 404.403176152999 1202.3106472656236 404.403176152999L1202.3106472656236 404.403176152999Q1195.912952881792 404.403176152999 1189.6881691569833 403.0198908808193Q1183.4633854321746 401.6582194410173 1177.8437890139444 398.308075422457L1177.8437890139444 398.308075422457Q1177.6924921872996 403.0198908808193 1177.6924921872996 407.6668648420481Q1177.6924921872996 412.29222497089904 1177.6924921872996 417.0040404292613L1177.6924921872996 417.0040404292613Q1177.6924921872996 418.68991935473036 1177.6924921872996 422.5587953503581Q1177.6924921872996 426.4276713459858 1177.8437890139444 430.68559632441406Q1177.9950858405891 434.9435213028423 1178.2976794938781 438.5098036451808Q1178.6002731471676 442.07608598751915 1179.2054604537461 443.005480779765L1179.2054604537461 443.005480779765L1152.4475359700193 443.005480779765Q1153.2256339356204 441.7734923342299 1153.8956627393322 435.8513022627104Q1154.5873053754224 429.9291121911908 1155.192492682001 421.4997175638455Q1155.7976799885796 413.0487091041224 1156.2515704685136 403.2576430369752Q1156.7054609484476 393.44496313745015 1157.094509931248 384.49683653303737Q1157.4619450816708 375.52709609624685 1157.6348557406932 368.30807608205885Q1157.786152567338 361.08905606787073 1157.786152567338 357.8902088759552L1157.786152567338 357.8902088759552Q1157.786152567338 356.22594378286385 1157.786152567338 351.9680188044356Q1157.786152567338 347.7100938260073 1157.4619450816708 343.08473369715637Q1157.1593514283818 338.43775973592744 1156.5541641218028 334.63372523743317Q1155.9489768152243 330.8296907389389 1154.8898990287116 330.07320660571565L1154.8898990287116 330.07320660571565L1183.7659790854639 330.3758002590049Q1182.7069012989512 331.45649187789536 1182.3178523161505 333.5098059537871Q1181.9504171657277 335.54150619730115 1181.6262096800608 337.0760882961256L1181.6262096800608 337.0760882961256Q1187.8726072372474 333.57464745092057 1194.789033598146 331.6726302016734Q1201.7054599590447 329.7706129524263 1208.9893214703661 329.7706129524263ZM1202.159350438979 389.18703815902177L1202.159350438979 389.18703815902177Q1207.4763532039196 389.18703815902177 1212.7069006393494 387.6740698925752Q1217.9590619071569 386.1611016261286 1222.2169868855854 383.11355126085766Q1226.4749118640134 380.0876147279645 1229.0469579169726 375.5919375933803Q1231.6406178023099 371.11787429117396 1231.6406178023099 365.19568421965437L1231.6406178023099 365.19568421965437Q1231.6406178023099 359.705770795691 1229.2847100731283 355.6855979734187Q1226.9288023439476 351.66542515114634 1223.1247678454533 349.00692376867585Q1219.320733346959 346.34842238620536 1214.544076391463 345.1164339406703Q1209.7458056035898 343.90605932751305 1204.8826933185828 343.90605932751305L1204.8826933185828 343.90605932751305Q1196.9936445006824 343.90605932751305 1190.0772181397838 347.25620334607333Q1183.1607917788851 350.6063473646336 1179.6593509336803 357.8902088759552L1179.6593509336803 357.8902088759552Q1179.3567572803909 362.29943068102807 1179.119005124235 366.55735565945633Q1178.9028668004569 370.8152806378846 1178.6002731471676 375.2245024429575L1178.6002731471676 375.2245024429575Q1179.8106477603246 379.15821993571865 1182.2530108190172 381.9031766477003Q1184.6737600453316 384.648133359682 1187.7861519077362 386.225943123262Q1190.8985437701406 387.8253667192199 1194.6377367715013 388.5170093553097Q1198.3553159404846 389.18703815902177 1202.159350438979 389.18703815902177Z " fill="#c5fad5" transform="matrix(0.697869198578238,0,0,0.6978691985782378,0,43.18025967191021)"/></g></svg>